<?xml version="1.0" standalone="no"?><!DOCTYPE svg PUBLIC "-//W3C//DTD SVG 1.1//EN" "http://www.w3.org/Graphics/SVG/1.1/DTD/svg11.dtd"><svg class="icon" width="200px" height="200.00px" viewBox="0 0 1024 1024" version="1.1" xmlns="http://www.w3.org/2000/svg"><path d="M270.387 476.16a41.472 41.472 0 0 1 10.701-9.011L681.472 66.406A49.818 49.818 0 0 1 717.158 51.2c12.8 0 25.6 5.069 35.79 14.694 19.814 19.456 20.018 51.2 0.511 70.964L378.266 512.46 753.05 886.272a50.995 50.995 0 0 1 0.512 71.526c-19.252 19.917-51.2 19.917-71.015 0.512L276.992 553.78a49.971 49.971 0 0 1-20.838-43.265v-1.536a50.688 50.688 0 0 1 14.182-32.819z" fill="#ffffff" /></svg>