<?xml version="1.0" standalone="no"?><!DOCTYPE svg PUBLIC "-//W3C//DTD SVG 1.1//EN" "http://www.w3.org/Graphics/SVG/1.1/DTD/svg11.dtd"><svg class="icon" width="200px" height="200.00px" viewBox="0 0 1024 1024" version="1.1" xmlns="http://www.w3.org/2000/svg"><path fill="#ffffff" d="M770.048 941.056H248.832c-55.296 0-100.352-45.056-100.352-100.352V227.84c0-55.296 45.056-100.352 100.352-100.352h521.216c55.296 0 100.352 45.056 100.352 100.352v613.376c0 54.784-45.056 99.84-100.352 99.84zM248.832 167.424c-33.28 0-60.416 27.136-60.416 60.416v613.376c0 33.28 27.136 60.416 60.416 60.416h521.216c33.28 0 60.416-27.136 60.416-60.416V227.84c0-33.28-27.136-60.416-60.416-60.416H248.832z"  /><path fill="#ffffff" d="M614.4 351.232H247.296c-11.264 0-19.968-9.216-19.968-19.968s9.216-19.968 19.968-19.968H614.4c11.264 0 19.968 9.216 19.968 19.968s-8.704 19.968-19.968 19.968zM614.4 547.84H247.296c-11.264 0-19.968-9.216-19.968-19.968s9.216-19.968 19.968-19.968H614.4c11.264 0 19.968 9.216 19.968 19.968s-8.704 19.968-19.968 19.968zM417.792 757.76H247.296c-11.264 0-19.968-9.216-19.968-19.968s9.216-19.968 19.968-19.968h170.496c11.264 0 19.968 9.216 19.968 19.968s-9.216 19.968-19.968 19.968zM657.408 719.872h-1.024c-11.264-0.512-19.456-10.24-18.944-20.992l23.552-432.128c0.512-10.752 9.216-18.944 19.968-18.944 11.264 0 19.456 8.192 20.48 18.432 6.656 87.552 66.56 122.368 67.072 122.88 9.728 5.632 12.8 17.92 7.168 27.136-5.632 9.728-17.92 12.8-27.136 7.168-2.048-1.024-29.184-16.896-52.736-52.224l-17.92 329.216c-1.024 11.264-9.728 19.456-20.48 19.456z"  /><path fill="#ffffff" d="M559.104 806.4h-6.656c-31.744-1.536-60.928-15.872-82.432-39.424-21.504-23.552-32.256-54.272-30.208-86.528 1.536-31.744 15.872-60.928 39.424-82.432 23.552-21.504 54.272-32.256 86.528-30.208 66.048 3.584 116.224 59.904 112.64 125.952-3.584 63.488-56.32 112.64-119.296 112.64z m0-198.656c-19.456 0-38.4 7.168-52.736 20.48-15.872 14.336-25.088 33.792-26.112 54.784-1.024 20.992 6.144 41.472 19.968 57.344 14.336 15.872 33.792 25.088 54.784 26.112 44.032 2.048 81.408-31.232 83.456-74.752 2.56-43.52-31.232-81.408-74.752-83.456-2.048-0.512-3.072-0.512-4.608-0.512z"  /></svg>