<?xml version="1.0" standalone="no"?><!DOCTYPE svg PUBLIC "-//W3C//DTD SVG 1.1//EN" "http://www.w3.org/Graphics/SVG/1.1/DTD/svg11.dtd"><svg class="icon" width="200px" height="200.00px" viewBox="0 0 1024 1024" version="1.1" xmlns="http://www.w3.org/2000/svg"><path fill="#ffffff" d="M256 488.727273H116.363636c-25.6 0-46.545455 20.945455-46.545454 46.545454v395.636364c0 25.6 20.945455 46.545455 46.545454 46.545454h139.636364c25.6 0 46.545455-20.945455 46.545455-46.545454V535.272727c0-25.6-20.945455-46.545455-46.545455-46.545454z m0 418.909091c0 13.963636-9.309091 23.272727-23.272727 23.272727H139.636364c-13.963636 0-23.272727-9.309091-23.272728-23.272727V558.545455c0-13.963636 9.309091-23.272727 23.272728-23.272728h93.090909c13.963636 0 23.272727 9.309091 23.272727 23.272728v349.090909zM581.818182 279.272727h-139.636364c-25.6 0-46.545455 20.945455-46.545454 46.545455v605.090909c0 25.6 20.945455 46.545455 46.545454 46.545454h139.636364c25.6 0 46.545455-20.945455 46.545454-46.545454V325.818182c0-25.6-20.945455-46.545455-46.545454-46.545455z m0 628.363637c0 13.963636-9.309091 23.272727-23.272727 23.272727h-93.09091c-13.963636 0-23.272727-9.309091-23.272727-23.272727V349.090909c0-13.963636 9.309091-23.272727 23.272727-23.272727h93.09091c13.963636 0 23.272727 9.309091 23.272727 23.272727v558.545455zM907.636364 46.545455h-139.636364c-25.6 0-46.545455 20.945455-46.545455 46.545454v837.818182c0 25.6 20.945455 46.545455 46.545455 46.545454h139.636364c25.6 0 46.545455-20.945455 46.545454-46.545454V93.090909c0-25.6-20.945455-46.545455-46.545454-46.545454z m0 861.090909c0 13.963636-9.309091 23.272727-23.272728 23.272727h-93.090909c-13.963636 0-23.272727-9.309091-23.272727-23.272727V116.363636c0-13.963636 9.309091-23.272727 23.272727-23.272727h93.090909c13.963636 0 23.272727 9.309091 23.272728 23.272727v791.272728z" /></svg>