<?xml version="1.0" standalone="no"?><!DOCTYPE svg PUBLIC "-//W3C//DTD SVG 1.1//EN" "http://www.w3.org/Graphics/SVG/1.1/DTD/svg11.dtd"><svg class="icon" width="200px" height="200.00px" viewBox="0 0 1024 1024" version="1.1" xmlns="http://www.w3.org/2000/svg"><path d="M877.004059 1005.778801C865.607279 1023.18107 844.042114 1029.084192 830.086177 1019.12054 821.965118 1013.626883 813.980548 1008.133225 805.893611 1002.537202 791.903552 992.710038 789.446761 972.134414 799.444535 956.574739 975.924014 685.952397 975.924014 337.975264 799.444535 67.3188 789.446761 51.725003 791.903552 31.217623 805.893611 21.356337 813.980548 15.794436 821.965118 10.300778 830.086177 4.738877 844.042114-5.190653 865.607279 0.678347 877.004059 18.14886 1072.899011 318.798646 1072.899011 705.129015 877.004059 1005.778801ZM741.812315 786.749068C730.415535 805.652709 708.270295 812.306518 694.34848 802.308744 689.366654 798.930656 684.521316 795.586691 679.675979 792.140359 665.651797 782.244951 663.195006 761.737572 672.646827 746.07553 759.96527 602.012041 759.96527 421.983864 672.646827 277.852131 663.195006 262.190089 665.651797 241.648588 679.675979 231.684936 684.521316 228.272726 689.366654 224.928761 694.34848 221.482429 708.270295 211.552899 730.415535 218.24083 741.812315 237.110349 844.315091 406.219456 844.315091 617.708205 741.812315 786.749068ZM475.386991 927.809812 262.226259 738.466302C250.590624 728.16143 239.671554 714.785568 229.707902 699.771846L63.021464 699.771846C28.489903 699.771846 0.305052 671.99646 0.305052 637.908486L0.305052 385.985053C0.305052 351.897079 28.489903 324.019327 63.021464 324.019327L229.707902 324.019327C239.671554 309.107971 250.590624 295.697987 262.226259 285.393115L475.386991 96.083727C518.141977 58.139957 553.117125 73.460778 553.117125 130.171701L553.117125 385.985053 553.117125 637.908486 553.117125 893.721838C553.117125 950.432761 518.141977 965.753582 475.386991 927.809812Z" fill="#5E64FF" /></svg>