<?xml version="1.0" standalone="no"?><!DOCTYPE svg PUBLIC "-//W3C//DTD SVG 1.1//EN" "http://www.w3.org/Graphics/SVG/1.1/DTD/svg11.dtd"><svg class="icon" width="200px" height="173.41px" viewBox="0 0 1181 1024" version="1.1" xmlns="http://www.w3.org/2000/svg"><path d="M224.452923 17.604923A331.618462 331.618462 0 0 0 0 331.776c0 81.841231 30.483692 162.579692 83.652923 223.113846l8.349539 9.255385 370.491076 397.705846 4.726154 5.277538c73.334154 78.769231 185.619692 75.224615 255.842462-7.719384l379.904-409.6 8.546461-10.200616C1157.592615 481.910154 1181.538462 410.269538 1181.538462 331.776A331.618462 331.618462 0 0 0 957.085538 17.644308l-10.082461-3.268923A330.003692 330.003692 0 0 0 594.707692 122.092308l-3.938461 5.001846 2.638769 3.387077A330.003692 330.003692 0 0 0 224.492308 17.604923z m310.547692 161.201231c13.430154 17.565538 34.579692 27.648 56.832 26.978461 20.086154 0.669538 41.275077-9.373538 54.744616-26.978461a253.794462 253.794462 0 0 1 283.254154-86.528A255.212308 255.212308 0 0 1 1102.769231 334.099692c0 61.558154-18.432 116.460308-53.090462 159.82277l-6.734769 8.034461-376.123077 404.125539c-42.456615 50.018462-102.124308 51.869538-144.147692 6.931692l-4.608-5.238154L153.6 518.104615l-3.150769-3.662769A265.058462 265.058462 0 0 1 78.769231 334.060308a255.212308 255.212308 0 0 1 172.898461-241.821539 253.794462 253.794462 0 0 1 283.332923 86.567385z" fill="#cdcdcd" /></svg>